<svg width="199" height="52" viewBox="0 0 199 52" fill="none" xmlns="http://www.w3.org/2000/svg">
<path d="M12.7808 34.9056L20.4639 42.5887L28.1501 34.9025L32.6213 39.3673L32.6182 39.3705L20.4639 51.5278L8.30967 39.3767L8.30343 39.3705L12.7808 34.9056ZM24.9975 31.7467L20.4639 36.2866L15.9303 31.7561L15.924 31.7467L16.7239 30.9469L17.1113 30.5625L20.4639 27.21L24.9975 31.7467ZM31.2996 31.7499L35.7708 27.2787L40.2388 31.7499L35.7708 36.2179L31.2996 31.7499ZM0.679688 31.7499L5.15082 27.2787L9.61883 31.7499L5.15082 36.2179L0.679688 31.7499ZM12.7808 28.591L20.4639 20.911L28.1501 28.5972L32.6182 24.1261L20.4639 11.9688L8.30967 24.123L12.7808 28.591Z" fill="black"/>
<path d="M47.2031 21.5537H56.9265C59.3386 21.5537 61.1633 22.1786 62.4006 23.4284C63.3411 24.3626 63.8597 25.6405 63.8348 26.9653V27.0247C63.8441 27.5621 63.7691 28.0964 63.6129 28.6119C63.4754 29.0556 63.2723 29.4743 63.0161 29.8617C62.7755 30.2273 62.485 30.5553 62.1538 30.8366C61.8288 31.1146 61.4726 31.3583 61.0946 31.5552C62.1881 31.9364 63.1724 32.58 63.9597 33.4299C64.6565 34.2204 65.0033 35.3139 65.0033 36.7106V36.7699C65.0221 37.6417 64.8346 38.504 64.4503 39.2883C64.0785 40.01 63.5348 40.6287 62.8662 41.088C62.11 41.5941 61.2696 41.9597 60.3822 42.1659C59.3292 42.4159 58.2482 42.5346 57.1671 42.5252H47.2031V21.5537ZM55.9517 30.0336C56.7922 30.0742 57.6295 29.893 58.3794 29.5086C58.9731 29.1618 59.323 28.5026 59.273 27.8152V27.7558C59.3042 27.1247 59.0105 26.5185 58.495 26.153C57.9763 25.7843 57.2265 25.5999 56.2485 25.5999H51.6993V30.0336H55.9517ZM57.1796 38.4853C58.017 38.5322 58.8512 38.3416 59.5855 37.9323C60.1666 37.5604 60.5009 36.898 60.4541 36.2075V36.1482C60.4759 35.4952 60.1729 34.8703 59.6448 34.4859C59.1074 34.0704 58.2388 33.8611 57.039 33.8611H51.6993V38.4853H57.1796Z" fill="black"/>
<path d="M70.7969 21.5537H75.4117V42.5315H70.7969V21.5537Z" fill="black"/>
<path d="M82.3984 21.5537H86.654L96.4899 34.4641V21.5537H101.045V42.5315H97.1179L86.9602 29.1962V42.5315H82.3984V21.5537Z" fill="black"/>
<path d="M115.016 21.4043H119.265L128.254 42.532H123.436L121.518 37.8266H112.647L110.729 42.532H106.023L115.016 21.4043ZM119.871 33.7523L117.078 26.9471L114.297 33.7523H119.871Z" fill="black"/>
<path d="M133.242 21.5537H137.498L147.327 34.4641V21.5537H151.883V42.5315H147.955L137.798 29.1962V42.5315H133.242V21.5537Z" fill="black"/>
<path d="M168.496 42.9004C167.024 42.9129 165.568 42.6286 164.209 42.063C161.628 40.9976 159.584 38.9323 158.544 36.339C158 34.9954 157.725 33.5613 157.735 32.1115V32.0522C157.71 29.1995 158.81 26.4469 160.794 24.3941C161.769 23.3911 162.94 22.5975 164.231 22.057C165.637 21.4758 167.143 21.1852 168.664 21.204C169.564 21.1977 170.461 21.279 171.345 21.4446C172.101 21.5883 172.842 21.8101 173.551 22.1038C174.195 22.3757 174.81 22.7162 175.379 23.1224C175.935 23.5192 176.457 23.9598 176.941 24.4409L174.007 27.8279C173.257 27.1374 172.417 26.55 171.508 26.0875C170.614 25.6595 169.636 25.447 168.645 25.4626C166.98 25.4439 165.387 26.1438 164.271 27.3811C163.724 27.9904 163.296 28.6996 163.009 29.4651C162.709 30.2744 162.556 31.1336 162.562 31.9991V32.0584C162.559 32.9208 162.709 33.78 163.009 34.5893C163.293 35.3579 163.718 36.0703 164.259 36.6858C165.365 37.9387 166.961 38.6511 168.633 38.6355C169.686 38.6698 170.73 38.4418 171.673 37.9762C172.573 37.4857 173.401 36.8826 174.145 36.1765L177.082 39.1448C176.563 39.7072 176.001 40.229 175.404 40.707C174.816 41.1726 174.179 41.5694 173.501 41.8912C172.779 42.2317 172.02 42.4817 171.239 42.6379C170.336 42.8192 169.417 42.9066 168.496 42.9004Z" fill="black"/>
<path d="M182.531 21.5537H198.319V25.6593H187.071V29.9148H196.976V34.0204H187.087V38.4259H198.475V42.5315H182.541L182.531 21.5537Z" fill="black"/>
</svg>
