<svg width="201" height="101" viewBox="0 0 201 101" fill="none" xmlns="http://www.w3.org/2000/svg">
<g id="partners-logo / 7">
<g id="Group 66460">
<path id="Vector" d="M140.383 68.3008V20.1094H150.077V68.3008H140.383Z" fill="black"/>
<path id="Vector_2" d="M27.4696 82.6133H6.70312V34.4219H26.6277C36.3221 34.4219 41.9602 39.7028 41.9602 47.9685C41.9602 53.326 38.3375 56.7701 35.8374 57.9181C38.8222 59.2702 42.6745 62.3061 42.6745 68.7605C42.6745 77.7406 36.3221 82.6133 27.4696 82.6133ZM25.8879 42.8152H16.423V53.9127H25.8879C29.9952 53.9127 32.2913 51.6677 32.2913 48.3512C32.2913 45.0347 29.9952 42.8152 25.8879 42.8152ZM26.5001 62.3571H16.3975V74.1945H26.5001C30.8881 74.1945 32.9801 71.4902 32.9801 68.2248C32.9801 64.9593 30.8881 62.3571 26.5001 62.3571Z" fill="black"/>
<path id="Vector_3" d="M72.2141 62.8418V82.6133H62.5962V62.8418L47.6719 34.4219H58.1827L67.4434 53.8362L76.5765 34.4219H87.0873L72.2141 62.8418Z" fill="black"/>
<path id="Vector_4" d="M114.595 82.6133H93.8281V34.4219H113.753C123.447 34.4219 129.085 39.7028 129.085 47.9685C129.085 53.326 125.463 56.7701 122.962 57.9181C125.947 59.2702 129.8 62.3061 129.8 68.7605C129.774 77.7406 123.447 82.6133 114.595 82.6133ZM112.987 42.8152H103.523V53.9127H112.987C117.095 53.9127 119.391 51.6677 119.391 48.3512C119.391 45.0347 117.095 42.8152 112.987 42.8152ZM113.6 62.3571H103.497V74.1945H113.6C117.988 74.1945 120.08 71.4902 120.08 68.2248C120.08 64.9593 118.013 62.3571 113.6 62.3571Z" fill="black"/>
<path id="Vector_5" d="M181.277 42.8152V82.6133H171.583V42.8152H158.648V34.4219H194.237V42.8152H181.277Z" fill="black"/>
</g>
</g>
</svg>
