<svg width="38" height="38" viewBox="0 0 38 38" fill="none" xmlns="http://www.w3.org/2000/svg">
<path d="M30.7281 6.47291L14.5607 2.42418C12.8456 1.99466 11.03 2.26408 9.51354 3.17316C7.99704 4.08223 6.90377 5.55651 6.47426 7.27166L2.42553 23.4391C1.99602 25.1542 2.26543 26.9697 3.17451 28.4863C4.08359 30.0028 5.55786 31.096 7.27301 31.5255L23.4404 35.5743C25.1556 36.0038 26.9711 35.7344 28.4876 34.8253C30.0041 33.9162 31.0974 32.4419 31.5269 30.7268L35.5756 14.5594C36.0051 12.8442 35.7357 11.0287 34.8266 9.51219C33.9176 7.99569 32.4433 6.90242 30.7281 6.47291Z" stroke="white" stroke-width="4" stroke-linejoin="round"/>
<path d="M17.3842 25.4655C19.0994 25.8951 20.9149 25.6256 22.4314 24.7166C23.9479 23.8075 25.0412 22.3332 25.4707 20.6181C25.9002 18.9029 25.6308 17.0874 24.7217 15.5709C23.8126 14.0544 22.3384 12.9611 20.6232 12.5316C18.9081 12.1021 17.0925 12.3715 15.576 13.2806C14.0595 14.1897 12.9663 15.6639 12.5368 17.3791C12.1072 19.0942 12.3767 20.9097 13.2857 22.4263C14.1948 23.9428 15.6691 25.036 17.3842 25.4655Z" stroke="white" stroke-width="4" stroke-linejoin="round"/>
<path d="M29.7132 13.9509C30.142 14.0582 30.5959 13.9909 30.975 13.7636C31.3542 13.5363 31.6275 13.1678 31.7349 12.739C31.8422 12.3102 31.7749 11.8563 31.5476 11.4772C31.3203 11.0981 30.9518 10.8248 30.523 10.7174C30.0942 10.61 29.6403 10.6773 29.2612 10.9046C28.8821 11.1319 28.6088 11.5005 28.5014 11.9292C28.394 12.358 28.4614 12.8119 28.6886 13.191C28.9159 13.5702 29.2845 13.8435 29.7132 13.9509Z" fill="white"/>
</svg>
