<svg width="169" height="45" viewBox="0 0 169 45" fill="none" xmlns="http://www.w3.org/2000/svg">
<path d="M15.6553 15.4668L26.703 33.957H4.60753L15.6553 15.4668Z" fill="black"/>
<path d="M33.9975 24.9258L24.9359 9.9831L43.0591 9.9831L33.9975 24.9258Z" fill="black"/>
<path d="M149.992 21.8855C149.992 20.0711 150.401 18.4739 151.219 17.0939C152.062 15.7139 153.199 14.6405 154.631 13.8739C156.062 13.0817 157.684 12.6855 159.499 12.6855C161.313 12.6855 162.923 13.0817 164.329 13.8739C165.76 14.6405 166.897 15.7139 167.741 17.0939C168.584 18.4739 169.006 20.0711 169.006 21.8855C169.006 23.6744 168.584 25.2717 167.741 26.6772C166.897 28.0572 165.76 29.1433 164.329 29.9355C162.923 30.7022 161.313 31.0855 159.499 31.0855C157.684 31.0855 156.062 30.7022 154.631 29.9355C153.199 29.1433 152.062 28.0572 151.219 26.6772C150.401 25.2717 149.992 23.6744 149.992 21.8855ZM154.247 21.8855C154.247 22.9844 154.477 23.9555 154.937 24.7989C155.397 25.6167 156.023 26.2683 156.816 26.7539C157.608 27.2139 158.502 27.4439 159.499 27.4439C160.47 27.4439 161.352 27.2139 162.144 26.7539C162.962 26.2683 163.601 25.6167 164.061 24.7989C164.521 23.9555 164.751 22.9844 164.751 21.8855C164.751 20.7867 164.521 19.8155 164.061 18.9722C163.601 18.1289 162.962 17.4772 162.144 17.0172C161.352 16.5572 160.47 16.3272 159.499 16.3272C158.502 16.3272 157.608 16.5572 156.816 17.0172C156.023 17.4772 155.397 18.1289 154.937 18.9722C154.477 19.8155 154.247 20.7867 154.247 21.8855Z" fill="black"/>
<path d="M131.016 13.0703H135.539L140.139 24.4553L144.739 13.0703H149.301L140.139 32.3136L131.016 13.0703Z" fill="black"/>
<path d="M111.32 21.8855C111.32 20.0711 111.729 18.4739 112.547 17.0939C113.39 15.7139 114.528 14.6405 115.959 13.8739C117.39 13.0817 119.013 12.6855 120.827 12.6855C122.641 12.6855 124.251 13.0817 125.657 13.8739C127.088 14.6405 128.225 15.7139 129.069 17.0939C129.912 18.4739 130.334 20.0711 130.334 21.8855C130.334 23.6744 129.912 25.2717 129.069 26.6772C128.225 28.0572 127.088 29.1433 125.657 29.9355C124.251 30.7022 122.641 31.0855 120.827 31.0855C119.013 31.0855 117.39 30.7022 115.959 29.9355C114.528 29.1433 113.39 28.0572 112.547 26.6772C111.729 25.2717 111.32 23.6744 111.32 21.8855ZM115.575 21.8855C115.575 22.9844 115.805 23.9555 116.265 24.7989C116.725 25.6167 117.351 26.2683 118.144 26.7539C118.936 27.2139 119.83 27.4439 120.827 27.4439C121.798 27.4439 122.68 27.2139 123.472 26.7539C124.29 26.2683 124.929 25.6167 125.389 24.7989C125.849 23.9555 126.079 22.9844 126.079 21.8855C126.079 20.7867 125.849 19.8155 125.389 18.9722C124.929 18.1289 124.29 17.4772 123.472 17.0172C122.68 16.5572 121.798 16.3272 120.827 16.3272C119.83 16.3272 118.936 16.5572 118.144 17.0172C117.351 17.4772 116.725 18.1289 116.265 18.9722C115.805 19.8155 115.575 20.7867 115.575 21.8855Z" fill="black"/>
<path d="M103.12 19.9689C103.12 18.6655 102.852 17.6817 102.315 17.0172C101.778 16.3528 100.948 16.0205 99.8234 16.0205C99.0568 16.0205 98.3795 16.1867 97.7918 16.5189C97.204 16.8255 96.744 17.2855 96.4118 17.8989C96.0796 18.4867 95.9134 19.1767 95.9134 19.9689V30.7022H91.7734V13.0689H95.9134V15.7905C96.4757 14.7428 97.1912 13.9633 98.0601 13.4522C98.9546 12.9411 100.015 12.6855 101.242 12.6855C103.235 12.6855 104.756 13.2989 105.803 14.5255C106.851 15.7267 107.375 17.3878 107.375 19.5089V30.7022H103.12V19.9689Z" fill="black"/>
<path d="M76.3212 24.9139C76.8835 25.5272 77.4457 26.0639 78.0079 26.5239C78.5957 26.9583 79.1835 27.2905 79.7712 27.5205C80.359 27.725 80.9468 27.8272 81.5346 27.8272C82.2757 27.8272 82.8507 27.6611 83.2596 27.3289C83.694 26.9967 83.9113 26.5367 83.9113 25.9489C83.9113 25.4378 83.7451 25.0033 83.4129 24.6455C83.0807 24.2622 82.6207 23.9428 82.0329 23.6872C81.4451 23.4061 80.7551 23.125 79.9629 22.8439C79.1707 22.5372 78.3785 22.1794 77.5863 21.7705C76.8196 21.3361 76.1807 20.7739 75.6696 20.0839C75.184 19.3939 74.9412 18.525 74.9412 17.4772C74.9412 16.4039 75.2096 15.5094 75.7463 14.7939C76.3085 14.0783 77.0496 13.5544 77.9696 13.2222C78.9151 12.8644 79.9246 12.6855 80.9979 12.6855C81.969 12.6855 82.8763 12.8261 83.7196 13.1072C84.5885 13.3883 85.3679 13.7589 86.0579 14.2189C86.7479 14.6789 87.3357 15.2028 87.8213 15.7905L85.5212 18.2439C84.9335 17.5539 84.2307 16.9917 83.4129 16.5572C82.5951 16.1228 81.7518 15.9055 80.8829 15.9055C80.2951 15.9055 79.8096 16.0333 79.4263 16.2889C79.0429 16.5444 78.8512 16.915 78.8512 17.4005C78.8512 17.8094 79.0174 18.18 79.3496 18.5122C79.7074 18.8189 80.1674 19.1 80.7296 19.3555C81.3174 19.6111 81.969 19.8794 82.6846 20.1605C83.6557 20.5439 84.5501 20.9655 85.3679 21.4255C86.1857 21.8855 86.8374 22.4478 87.3229 23.1122C87.834 23.7767 88.0896 24.6455 88.0896 25.7189C88.0896 27.38 87.5146 28.7217 86.3646 29.7439C85.2401 30.7405 83.7068 31.2389 81.7646 31.2389C80.5635 31.2389 79.4518 31.06 78.4296 30.7022C77.4329 30.3189 76.5512 29.8333 75.7846 29.2455C75.0435 28.6322 74.4174 27.9933 73.9062 27.3289L76.3212 24.9139Z" fill="black"/>
<path d="M52.5781 21.8855C52.5781 20.0711 52.987 18.4739 53.8048 17.0939C54.6481 15.7139 55.7853 14.6405 57.2165 13.8739C58.6476 13.0817 60.2703 12.6855 62.0848 12.6855C63.8992 12.6855 65.5092 13.0817 66.9148 13.8739C68.3459 14.6405 69.4831 15.7139 70.3265 17.0939C71.1698 18.4739 71.5915 20.0711 71.5915 21.8855C71.5915 23.6744 71.1698 25.2717 70.3265 26.6772C69.4831 28.0572 68.3459 29.1433 66.9148 29.9355C65.5092 30.7022 63.8992 31.0855 62.0848 31.0855C60.2703 31.0855 58.6476 30.7022 57.2165 29.9355C55.7853 29.1433 54.6481 28.0572 53.8048 26.6772C52.987 25.2717 52.5781 23.6744 52.5781 21.8855ZM56.8331 21.8855C56.8331 22.9844 57.0631 23.9555 57.5231 24.7989C57.9831 25.6167 58.6092 26.2683 59.4015 26.7539C60.1937 27.2139 61.0881 27.4439 62.0848 27.4439C63.0559 27.4439 63.9376 27.2139 64.7298 26.7539C65.5476 26.2683 66.1865 25.6167 66.6465 24.7989C67.1065 23.9555 67.3365 22.9844 67.3365 21.8855C67.3365 20.7867 67.1065 19.8155 66.6465 18.9722C66.1865 18.1289 65.5476 17.4772 64.7298 17.0172C63.9376 16.5572 63.0559 16.3272 62.0848 16.3272C61.0881 16.3272 60.1937 16.5572 59.4015 17.0172C58.6092 17.4772 57.9831 18.1289 57.5231 18.9722C57.0631 19.8155 56.8331 20.7867 56.8331 21.8855Z" fill="black"/>
</svg>
