<svg width="40" height="35" viewBox="0 0 40 35" fill="none" xmlns="http://www.w3.org/2000/svg">
<path fill-rule="evenodd" clip-rule="evenodd" d="M35.8567 0.236336C36.3485 0.0270731 36.8868 -0.0451003 37.4156 0.0273271C37.9443 0.0997546 38.4442 0.314136 38.8632 0.648156C39.2822 0.982177 39.605 1.42363 39.798 1.92656C39.9909 2.42949 40.047 2.97551 39.9604 3.5078L35.4467 31.1865C35.0089 33.8563 32.1112 35.3874 29.6891 34.0575C27.6631 32.9449 24.654 31.2307 21.9474 29.4421C20.5941 28.5468 16.4485 25.6797 16.958 23.6396C17.3959 21.8952 24.3615 15.3402 28.3418 11.443C29.9041 9.9119 29.1916 9.02864 27.3467 10.437C22.7653 13.9338 15.4097 19.2515 12.9777 20.7484C10.8323 22.0682 9.7138 22.2936 8.3764 22.0682C5.93646 21.6578 3.67363 21.022 1.82675 20.2474C-0.66892 19.2012 -0.54752 15.7325 1.82476 14.7225L35.8567 0.236336Z" fill="white"/>
</svg>
